# xmcd
#
# Track frame offsets:
#   182
#   16470
#   39800
#   57622
#   78732
#   99597
#   115285
#   133882
#   150737
#   172145
#   187417
#   206307
#   220897
#   234527
#   245832
#   265120
#   280852
#   300835
#
# Disc length: 4191 seconds
#
# Revision: 0
# Processed by: cddbd v1.5PL3 Copyright (c) Steve Scherf et al.
# Submitted via: uFREEDB 1.6.0
#
DISCID=09105d12
DTITLE=Gladys Knight and The Pips - The Colection
DYEAR=1999
DGENRE=Blues
TTITLE0=THE GOING UPS AND THE COMING DOWNS
TTITLE1=MONEY
TTITLE2=SECONDS
TTITLE3=MIDNIGHT TRAIN TO GEORGIA
TTITLE4=THE WAY WE WERE
TTITLE5=I'VE GOT TO USE MY IMAGINATION
TTITLE6=BETTER YOU GO YOUR WAY
TTITLE7=BEST THINGS THAT EVER HAPPENED TO ME
TTITLE8=DON'T BURN DOWN THE BRIDGE
TTITLE9=COME BACK AND FINISH WHAT YOU'VE STARTED
TTITLE10=THE NEED TO BE
TTITLE11=BABY DON'T CHANGE YOUR MIND
TTITLE12=TENDERNESS IS HIS WAY
TTITLE13=PART TIME LOVE
TTITLE14=ON and ON
TTITLE15=NOBODY BUT YOU
TTITLE16=WHERE PEACEFUL, WATERS FLOW
TTITLE17=THE ONE and ONLY
EXTD=
EXTT0=
EXTT1=
EXTT2=
EXTT3=
EXTT4=
EXTT5=
EXTT6=
EXTT7=
EXTT8=
EXTT9=
EXTT10=
EXTT11=
EXTT12=
EXTT13=
EXTT14=
EXTT15=
EXTT16=
EXTT17=
PLAYORDER=
